# xmcd
#
# Track frame offsets:
#        150
#        20085
#        39335
#
# Disc length: 740 seconds
#
# Revision: 0
# Processed by: cddbd v1.5.1PL2 Copyright (c) Steve Scherf et al.
# Submitted via: ExactAudioCopy v0.95a5
#
DISCID=1c02e203
DTITLE=sona - Reach for the sky
DYEAR=2005
DGENRE=J-POP
TTITLE0=Reach for the sky
TTITLE1=Reach for the sky -Rock'n'roll party version-
TTITLE2=Reach for the sky -Ballad version-
EXTD=
EXTT0=
EXTT1=
EXTT2=
PLAYORDER=
